/* XPM */
static char *dummy[]={
"83 83 2 1",
"# c #000000",
". c #ffffff",
"...................................................................................",
"...................................................................................",
"...................................................................................",
".....................................#######.......................................",
".................................###############...................................",
"....####.......................###################.................................",
"...########...................#####################................................",
"..###########................#######################...............................",
"..##############...........###########################.............................",
"..################........#############################............................",
"..###################....###############################...........................",
"...####################.#############.......#############..........................",
"....###############################...........###########..........................",
".......###########################.............###########......................###",
".........#######################.................#########.................########",
"............####################.................##########..........##############",
"..............#################...................##########....###################",
".................#############.....................################################",
"...................##########.......................###############################",
"....................#########.......................###############################",
"....................########....####.................##############################",
"....................########...######................############################..",
"...................########...########.....####.......#####################........",
"...................########...########....######......################.............",
"...................########...########...########.....###########..................",
"...................########...########...########.....########.....................",
"..................########.....######....########......########....................",
"..................########......####.....########......########....................",
"..................########...........####.######.......########....................",
"..................########..........######.####........########....................",
"..................########.........########............########....................",
"..................########.........########............########....................",
"..................########.........########............########....................",
"..................########.........########............########....................",
"..................########.........########............########....................",
"..................########........########.............########....................",
"..................########........########.............########....................",
"...................########.......########............########.....................",
"...................########.......########............########.....................",
"...................########.......########............########.....................",
"...................########........######.............########.....................",
"....................########........####.............########......................",
"....................########....##########...........########......................",
"....................#########..####################.#########......................",
".....................########.##############################.......................",
".....................#######################################.......................",
".....................#######################################.......................",
"......................#####################################........................",
".......................###################################.........................",
".......................###################################.........................",
"........................############.....################..........................",
"........................#############.......#############..........................",
".........................#################################.........................",
"........................##################################.........................",
".......................###################################.........................",
"......................####################################.........................",
".....................#####################################.........................",
".....................#####################################.........................",
"....................##########...###############..########.........................",
"...................##########........#######.......########........................",
"..................###########......................########........................",
".................###########.......................########........................",
".................##########........................#########.......................",
"................##########.........................#########.......................",
"...............##########..........................##########......................",
"..............##########...........................##########......................",
".............###########............................##########.....................",
"............###########..............................#########.....................",
"............##########................................#########....................",
"...........##########.................................#########....................",
"..........##########...................................#########...................",
".........##########....................................#########...................",
"........###########.....................................#########..................",
".......###########......................................#########..................",
".......##########........................................#########.................",
"......##########.........................................#########.................",
".....##########...........................................#########................",
"....###########...........................................#########................",
"...###########.............................................#########...............",
"...##########..............................................#########...............",
"..##########................................................########...............",
".##########.................................................########...............",
"##########...................................................######................"};
